<svg xmlns="http://www.w3.org/2000/svg" width="256" height="256"><path fill="#1976D2" fill-opacity=".016" fill-rule="evenodd" d="M0 128.004v128.004l128.25-.254 128.25-.254.254-127.75L257.008 0H0zm.485.496c0 70.4.119 99.053.265 63.672s.146-92.98 0-128S.485 58.1.485 128.5"/><path fill="#1976D2" fill-opacity=".251" fill-rule="evenodd" d="M48 1.576C36.841 4.507 28.089 9.719 18.904 18.904 9.574 28.234 4.437 36.965 1.515 48.46c-2.263 8.902-2.263 150.178 0 159.08 2.922 11.495 8.059 20.226 17.389 29.556s18.061 14.467 29.556 17.389c8.902 2.263 150.178 2.263 159.08 0 10.438-2.653 20.069-8.091 28.359-16.011 8.736-8.346 14.229-16.943 17.237-26.974 1.154-3.85 2.496-7.781 2.981-8.736 1.032-2.029 1.22-151.434.19-150.404-.381.381-1.286-1.681-2.01-4.584-2.677-10.722-8.02-19.692-17.201-28.872-9.33-9.33-18.061-14.467-29.556-17.389C198.887-.684 56.4-.63 48 1.576M.475 128c0 41.525.124 58.513.275 37.75s.151-54.737 0-75.5S.475 86.475.475 128"/><path fill="#1976D2" fill-opacity=".367" fill-rule="evenodd" d="M48.216 2.019C25.585 7.948 7.785 25.881 1.972 48.609.099 55.931 0 59.932 0 128s.099 72.069 1.972 79.391a64.62 64.62 0 0 0 46.637 46.637C55.931 255.901 59.932 256 128 256s72.069-.099 79.391-1.972c11.648-2.979 20.897-8.282 29.674-17.012 8.473-8.428 14.832-19.538 17.01-29.716.683-3.19 1.62-6.228 2.083-6.75.992-1.119 1.159-147.2.167-146.208-.371.371-1.48-2.495-2.464-6.368-5.641-22.213-23.82-40.209-46.47-46.002C200.056.096 196.166.003 127.59.055 59.965.107 55.049.228 48.216 2.019M74 37.119c-12.547 2.02-24.422 10.467-28.527 20.291-2.037 4.875-2.074 16.215-.069 21.015 4.683 11.208 13.107 16.096 35.474 20.583 16.59 3.328 22.046 7.371 18.694 13.854-1.744 3.371-5.469 5.163-12.178 5.859-8.8.912-17.55-3.6-18.9-9.748L67.841 106H42v3.989c0 5.225 2.996 12.955 6.96 17.96 7.514 9.488 26.672 14.645 45.29 12.193 21.049-2.773 32.182-12.593 33.462-29.516.754-9.975-1.316-16.084-7.327-21.625-6.377-5.878-13.053-8.454-29.885-11.53-11.051-2.02-17.243-4.603-18.376-7.666-2.445-6.607 5.55-12.596 15.277-11.444 6.063.718 9.46 2.982 11.931 7.954L101.165 70h25.062l-.703-4.75C122.405 44.195 101.373 32.712 74 37.119M139 88.5V139h26.955l.272-18.056.273-18.056 22.5-.194 22.5-.194.283-11.25.283-11.25h-46.141l.287-9.25.288-9.25 23.75-.268 23.75-.268V38h-75zM.475 128c0 40.425.123 56.963.275 36.75.151-20.212.151-53.287 0-73.5C.598 71.038.475 87.575.475 128"/><path fill="#1976D2" fill-opacity=".983" fill-rule="evenodd" d="M53.927 1.04c-3.065.464-8.553 1.966-12.196 3.337-18.33 6.899-31.542 20.705-38.407 40.133L.5 52.5v151l2.824 7.99c7.202 20.382 20.804 33.984 41.186 41.186l7.99 2.824h151l7.99-2.824c20.333-7.185 34.317-21.144 40.936-40.862 1.416-4.217 2.574-9.248 2.574-11.181s.45-3.793 1-4.133c.651-.402 1-24.697 1-69.618 0-45.745-.337-68.792-1-68.382-.597.369-1-.848-1-3.015 0-1.998-1.158-7.082-2.574-11.299-6.619-19.718-20.603-33.677-40.936-40.862L203.5.5l-72-.152C91.9.264 56.992.575 53.927 1.04m16.338 36.502c-17.843 4.805-28.409 17.9-26.999 33.459.908 10.005 6.34 17.416 16.478 22.479 2.884 1.441 11.372 3.935 18.861 5.543 17.934 3.85 22.479 6.522 21.015 12.353-1.076 4.29-5.985 6.616-13.969 6.62-10.27.006-15.222-2.976-17.012-10.246l-.677-2.75H40.725l.666 5.671c1.798 15.296 12.742 26.13 29.629 29.333 6.747 1.279 21.213 1.279 27.96 0 12.618-2.393 22.807-9.704 27.105-19.449 2.494-5.655 3.015-17.955.976-23.051-4.271-10.676-14.221-16.347-35.909-20.467-15.392-2.924-20.173-5.831-18.772-11.413 1.02-4.067 6.027-6.616 13.002-6.62 7.262-.005 11.976 2.579 13.774 7.55L100.402 70h25.878l-.555-5.372c-1.366-13.234-10.929-23.102-26.26-27.095-7.277-1.896-22.146-1.891-29.2.009m68.414.113c-.374.373-.679 23.566-.679 51.539v50.861l14.25-.278 14.25-.277.273-18.25.272-18.25H212V80h-45V62h48.062l-.281-12.25-.281-12.25-37.571-.262c-20.665-.144-37.877.044-38.25.417M.473 128c0 38.225.125 53.862.277 34.75s.152-50.388 0-69.5S.473 89.775.473 128m101.884 19.94c-5.643 2.413-7.086 10.059-2.721 14.424 2.105 2.105 3.59 2.636 7.364 2.636 5.966 0 10-3.462 10-8.581 0-6.604-8.081-11.283-14.643-8.479M41 183.517v35.517l25.25-.267 25.25-.267v-16l-15.25-.276-15.25-.276V148H41zM185 162v7h-8v14h7.768l.39 13.33c.563 19.265 2.672 21.618 20.139 22.466l9.796.476-.296-7.386-.297-7.386-4.484-.319c-2.466-.175-4.821-.85-5.234-1.5s-.758-5.343-.767-10.431L204 183h11v-13.895l-5.25-.303-5.25-.302-.296-6.75-.295-6.75H185zm-48.006 6.889c-9.155 2.951-12.984 7.616-12.99 15.826-.007 9.332 6.198 13.857 21.669 15.801 6.059.762 8.923 2.489 8.021 4.839-1.071 2.791-8.053 2.593-11.157-.316-1.652-1.548-3.737-1.945-11.037-2.105-8.309-.181-8.973-.052-8.651 1.677 1.691 9.064 12.211 15.396 25.56 15.383 14.694-.013 24.591-7.261 24.591-18.007 0-8.287-4.855-11.845-19.244-14.106-8.077-1.269-11.98-3.134-11.14-5.322 1.298-3.382 9.495-2.62 11.684 1.087.573.971 3.221 1.354 9.358 1.354h8.559l-.687-2.75c-2.329-9.333-9.438-13.642-23.03-13.959-4.95-.115-10.128.154-11.506.598M98 194.038v25.037l9.25-.287 9.25-.288.267-24.75.268-24.75H98z"/></svg>